<?xml version="1.0" encoding="UTF-8"?>
<!DOCTYPE svg PUBLIC "-//W3C//DTD SVG 1.1//EN" "http://www.w3.org/Graphics/SVG/1.1/DTD/svg11.dtd">
<!-- Creator: CorelDRAW -->
<svg xmlns="http://www.w3.org/2000/svg" xml:space="preserve" width="25.4mm" height="16.9332mm" style="shape-rendering:geometricPrecision; text-rendering:geometricPrecision; image-rendering:optimizeQuality; fill-rule:evenodd; clip-rule:evenodd"
viewBox="0 0 25.4 16.9332">
 <defs>
  <style type="text/css">
   <![CDATA[
    .str0 {stroke:black;stroke-width:0.0762}
    .str1 {stroke:#381B17;stroke-width:0.0762}
    .fil1 {fill:white}
    .fil0 {fill:#381B17}
    .fil3 {fill:#59251F}
    .fil4 {fill:#784330}
    .fil5 {fill:#8F5D40}
    .fil7 {fill:#E9B8A4}
    .fil2 {fill:#381B17;fill-rule:nonzero}
    .fil6 {fill:#7B3129;fill-rule:nonzero}
   ]]>
  </style>
 </defs>
 <g id="Layer_x0020_1">
  <metadata id="CorelCorpID_0Corel-Layer"/>
  <g id="_160741216">
   <path id="_160997368" class="fil0" d="M12.7057 16.664c-0.0391,-0.0228 -0.0391,-0.0228 -0.0587,-0.0521 -0.1042,-0.3455 -0.3649,-0.6681 -0.5702,-0.9581 -0.0587,-0.0326 -0.1239,-0.0619 -0.1304,-0.1401 -0.0456,-0.0294 -0.088,-0.0587 -0.1303,-0.088 0,-0.0098 0,-0.0163 0,-0.0228 -0.0489,0 -0.2151,-0.1793 -0.2347,-0.1956 -0.0456,-0.026 -0.0912,-0.0521 -0.1336,-0.0749 0,-0.0098 0,-0.0163 0,-0.0228 -0.0456,-0.0163 -0.0456,-0.0163 -0.1629,-0.1043 -0.2249,-0.0913 -0.4497,-0.1825 -0.6746,-0.2705 -0.1923,-0.0228 -0.3813,-0.0456 -0.5703,-0.0652 -0.5083,-0.013 -1.046,0.0326 -1.5479,0.1271 0,0.0065 0,0.0131 0,0.0196 -0.1727,0.0065 -0.3617,0.0195 -0.5279,0.0749 -0.6778,0.0815 -0.6778,0.0815 -0.7658,0.1043 -0.8799,0.0098 -0.8799,0.0098 -1.0917,0 -0.2183,-0.0326 -0.3976,-0.0749 -0.5703,-0.0978 -0.3649,-0.1466 -0.7071,-0.2965 -1.046,-0.492 -0.0228,-0.0456 -0.0978,-0.0848 -0.1499,-0.0978 0,-0.0098 0,-0.0163 0,-0.0228 -0.0913,-0.0261 -0.2998,-0.1532 -0.3259,-0.2379 -0.0098,0 -0.0163,0 -0.0228,0 -0.0131,-0.0358 -0.2705,-0.3063 -0.3129,-0.3161 -0.1173,-0.1857 -0.1173,-0.1857 -0.2574,-0.3813 -0.0489,-0.1368 -0.0489,-0.1368 -0.1532,-0.3584 -0.0554,-0.2118 -0.1368,-0.4204 -0.1499,-0.6387 -0.0163,-0.062 -0.0325,-0.1239 -0.0488,-0.1858 -0.5768,-0.0521 -1.0754,-0.2281 -1.5708,-0.5246 -0.0814,-0.0685 -0.0814,-0.0685 -0.1825,-0.1271 -0.0488,-0.0522 -0.2215,-0.251 -0.29,-0.2607 0,-0.0359 -0.0945,-0.1304 -0.1108,-0.1499 -0.0684,-0.163 -0.2379,-0.2998 -0.29,-0.4823 -0.0098,0 -0.0163,0 -0.0228,0 -0.1369,-0.3683 -0.1369,-0.3683 -0.2347,-0.5866 -0.0423,-0.189 -0.0814,-0.378 -0.1205,-0.5638 -0.0228,-0.2737 -0.0456,-0.5442 -0.0652,-0.8147 0.0065,-0.5409 0.0163,-1.0558 0.1434,-1.5772 0.1043,-0.277 0.1629,-0.5735 0.3128,-0.8342 0.0294,-0.0294 0.0554,-0.0978 0.1076,-0.1858 0.0065,0 0.013,0 0.0195,0 0.0261,-0.1141 0.088,-0.1597 0.1695,-0.2411 0.1238,-0.1858 0.2737,-0.352 0.4562,-0.4791 0.0521,-0.0652 0.088,-0.0684 0.1695,-0.0945 0,-0.0456 0.0847,-0.0652 0.1173,-0.0815 0.2737,-0.2281 0.7625,-0.3161 1.1079,-0.391 0.0815,-0.0065 0.2477,0 0.2999,-0.0717 0.0553,-0.3422 0.1466,-0.6941 0.2737,-1.0167 0.101,-0.176 0.2346,-0.352 0.3291,-0.5247 0.0065,0 0.0131,0 0.0228,0 0,-0.0098 0,-0.0163 0,-0.0228 0.0587,-0.0293 0.1467,-0.1238 0.1727,-0.1857 0.0587,-0.0457 0.0587,-0.0457 0.1402,-0.0848 0.0651,-0.1662 0.4399,-0.3454 0.5865,-0.4432 0.0424,-0.0163 0.1793,-0.0619 0.1956,-0.1108 0.4595,-0.1922 0.4595,-0.1922 0.492,-0.215 0.1858,-0.0522 0.3748,-0.1011 0.5638,-0.1499 0.1336,-0.0163 0.2672,-0.0326 0.4008,-0.0457 0.7137,-0.0163 1.3655,0.0685 2.0661,0.176 0.4106,0.1173 0.8961,0.1304 1.323,0.1629 0.2836,-0.0097 0.6159,0.0066 0.8929,-0.0554 0.176,-0.0651 0.352,-0.1303 0.5312,-0.1955 0.352,-0.1922 0.352,-0.1922 0.3813,-0.1988 0,-0.0554 0.202,-0.1596 0.2444,-0.189 0.0489,-0.0554 0.088,-0.114 0.1564,-0.1368 0,-0.0098 0,-0.0163 0,-0.0228 0.378,-0.3129 0.5964,-0.7268 0.8147,-1.1732 0.0196,0 0.0424,0 0.0652,0 0.1303,0.2868 0.3259,0.541 0.4692,0.8147 0.0359,0 0.2998,0.3356 0.3129,0.3519 0.0423,0.0261 0.0847,0.0522 0.1303,0.0815 0,0.0065 0,0.013 0,0.0228 0.0163,0.0098 0.0326,0.0196 0.0489,0.0293 0.0782,0.1174 0.2998,0.2379 0.4302,0.2966 0,0.0065 0,0.013 0,0.0228 0.0423,0.013 0.0684,0.0391 0.391,0.189 0.1336,0.0359 0.2672,0.0717 0.4041,0.1075 0.4627,0.0489 0.9581,0.0522 1.4208,0 0.7854,-0.1205 1.5675,-0.2509 2.3594,-0.3161 0.277,0 0.5474,0.0424 0.8244,0.0652 0.5573,0.0945 1.0689,0.3617 1.5447,0.6583 0,0.0065 0,0.013 0,0.0228 0.2737,0.1727 0.5149,0.3813 0.7104,0.642 0.0032,0.013 0.0098,0.026 0.0163,0.0423 0.0945,0 0.2998,0.5736 0.3519,0.642 0.0261,0.1141 0.0261,0.1141 0.0554,0.1858 0.0228,0.1336 0.0554,0.5311 0.1793,0.6126 0.4431,0.0359 0.8146,0.1792 1.2285,0.3324 0,0.0065 0,0.013 0,0.0196 0.0978,0.0391 0.0978,0.0391 0.2509,0.127 0.0456,0.0946 0.2575,0.1402 0.2933,0.2542 0.1564,0.1239 0.264,0.2444 0.3878,0.4074 0.0847,0.0619 0.1467,0.2379 0.2086,0.3324 0.0065,0 0.013,0 0.0228,0 0.026,0.202 0.1792,0.3649 0.2085,0.5637 0.0815,0.2119 0.1239,0.4302 0.163,0.6518 0.0098,0.0293 0.0195,0.0586 0.0326,0.088 0.0423,0.7039 0.0651,1.3817 -0.0522,2.0856 -0.0521,0.1857 -0.1043,0.3747 -0.1531,0.5637 -0.1271,0.3324 -0.2868,0.6485 -0.4823,0.9483 -0.0489,0.0196 -0.1011,0.0913 -0.1206,0.1402 -0.0065,0 -0.013,0 -0.0196,0 -0.0065,0.013 -0.0097,0.026 -0.013,0.0423 -0.0163,0.0033 -0.0293,0.0065 -0.0424,0.0098 0,0.0065 0,0.013 0,0.0228 -0.0554,0.0228 -0.1271,0.075 -0.1499,0.1304 -0.0423,0.0293 -0.0945,0.0456 -0.1108,0.0977 -0.0847,0.0261 -0.2346,0.1141 -0.2704,0.1858 -0.3455,0.1662 -0.6713,0.3226 -1.0559,0.3747 -0.1205,0.0359 -0.2444,0.0359 -0.3617,0.088 -0.0521,0.1499 -0.0912,0.2998 -0.1108,0.4595 -0.0065,0.0261 -0.1564,0.567 -0.2542,0.6322 -0.0521,0.101 -0.1043,0.202 -0.1531,0.3031 -0.0098,0 -0.0163,0 -0.0228,0 -0.0294,0.0684 -0.1825,0.2541 -0.2347,0.2802 -0.2965,0.365 -0.7658,0.5866 -1.1666,0.8114 -0.1206,0.0457 -0.2412,0.0913 -0.3585,0.1369 0,0.0065 0,0.013 0,0.0196 -0.9352,0.2802 -1.9226,0.1759 -2.8677,-0.0066 -0.0847,-0.0065 -0.1694,-0.013 -0.2509,-0.0195 -0.5084,-0.1271 -1.0754,-0.1434 -1.5968,-0.1434 -0.1825,0.0196 -0.3617,0.0424 -0.5409,0.0652 -0.1239,0.0423 -0.2477,0.0847 -0.3715,0.1303 -0.1402,0.062 -0.365,0.1467 -0.4563,0.2673 -0.0163,0.0032 -0.0293,0.0065 -0.0423,0.013 0,0.0065 0,0.013 0,0.0195 -0.277,0.1043 -0.5149,0.4269 -0.7104,0.6355 -0.1858,0.2672 -0.3422,0.5181 -0.4628,0.8212 -0.0098,0 -0.0163,0 -0.0228,0 -0.0098,0.0098 -0.0163,0.0196 -0.0228,0.0326z"/>
   <path id="_160997296" class="fil1 str0" d="M12.6821 15.4573c-0.0521,-0.0326 -0.0684,-0.101 -0.0912,-0.1564 -0.0587,-0.1141 -0.0587,-0.1141 -0.0815,-0.1369 -0.0489,-0.1075 -0.0489,-0.1075 -0.0815,-0.1467 -0.013,-0.0456 -0.0358,-0.0945 -0.088,-0.1075 -0.0195,-0.0456 -0.0195,-0.0456 -0.0977,-0.1303 -0.0066,-0.0163 -0.0131,-0.0326 -0.0196,-0.0489 -0.0098,-0.0033 -0.0163,-0.0065 -0.0228,-0.0065 -0.0033,-0.0163 -0.0065,-0.0294 -0.0098,-0.0424 -0.013,0 -0.0228,0 -0.0326,0 0,-0.013 0,-0.0228 0,-0.0326 -0.0097,0 -0.0163,0 -0.0228,0 0,-0.0098 0,-0.0163 0,-0.0228 -0.0097,0 -0.0163,0 -0.0228,0 -0.0228,-0.0424 -0.0554,-0.0717 -0.0977,-0.088 -0.0098,-0.0261 -0.0392,-0.0424 -0.0522,-0.0717 -0.1564,-0.1271 -0.3161,-0.2476 -0.4888,-0.3519 0,-0.0065 0,-0.0131 0,-0.0196 -0.0326,-0.0065 -0.0782,-0.0391 -0.1303,-0.0456 -0.0229,-0.0554 -0.1011,-0.0587 -0.1532,-0.075 0,-0.0097 0,-0.0162 0,-0.0228 -0.1858,-0.0586 -0.3617,-0.1173 -0.554,-0.1564 -0.5377,-0.0391 -1.0624,-0.0782 -1.5968,0.0391 -0.176,0.0131 -0.176,0.0131 -0.2411,0.0326 -0.0294,0 -0.0587,0 -0.0848,0.0033 -0.0651,0 -0.1955,0.0228 -0.2281,0.0391 -0.1368,0 -0.2476,0.0163 -0.3813,0.0554 -0.0749,0.0065 -0.1466,0.013 -0.2183,0.0195 -0.3943,0.0359 -0.7886,0.0587 -1.1829,0.0652 -0.0359,-0.0033 -0.0717,-0.0033 -0.1076,-0.0033 0,-0.0097 0,-0.0097 -0.2932,-0.0391 -0.0131,-0.0032 -0.0229,-0.0065 -0.0326,-0.0065 -0.0554,-0.013 -0.1108,-0.0261 -0.163,-0.0358 -0.1173,-0.0391 -0.2379,-0.075 -0.3584,-0.0978 -0.0261,-0.0098 -0.0489,-0.0163 -0.0717,-0.0228 -0.0391,-0.0163 -0.0782,-0.0293 -0.1141,-0.0424 0,-0.0097 0,-0.0163 0,-0.0228 -0.1271,-0.0456 -0.1271,-0.0456 -0.1629,-0.0489 -0.0293,-0.0293 -0.0554,-0.0391 -0.0978,-0.0488 -0.0489,-0.0489 -0.1238,-0.0587 -0.1857,-0.0815 -0.0522,-0.0293 -0.1043,-0.0554 -0.1532,-0.0815 -0.0358,-0.0358 -0.0554,-0.0456 -0.1075,-0.0652 -0.0685,-0.0423 -0.1369,-0.0847 -0.2053,-0.1238 -0.0228,-0.0684 -0.189,-0.1727 -0.251,-0.1923 -0.013,-0.0228 -0.013,-0.0228 -0.0325,-0.0325 -0.0033,-0.0163 -0.0066,-0.0326 -0.0098,-0.0457 -0.0587,0 -0.2281,-0.2411 -0.277,-0.29 -0.013,-0.013 -0.0228,-0.0261 -0.0326,-0.0391 -0.0065,-0.0293 -0.013,-0.0554 -0.0163,-0.0815 -0.0098,0 -0.0163,0 -0.0228,0 -0.0098,-0.0228 -0.0163,-0.0456 -0.0228,-0.0651 -0.0065,0 -0.0131,0 -0.0196,0 -0.0097,-0.0294 -0.0163,-0.0587 -0.0228,-0.0848 -0.0098,0 -0.0163,0 -0.0228,0 -0.0163,-0.0651 -0.0489,-0.1205 -0.1401,-0.3487 -0.0033,-0.0097 -0.0065,-0.0163 -0.0065,-0.0228 -0.0359,-0.1368 -0.0685,-0.277 -0.0913,-0.4138 -0.0032,-0.0261 -0.0065,-0.0522 -0.0098,-0.0782 -0.0684,-0.0326 -0.1205,-0.0261 -0.1955,-0.0294 -0.1922,-0.0228 -0.1922,-0.0228 -0.3584,-0.0554 -0.0424,-0.0195 -0.062,-0.026 -0.1108,-0.0326 -0.2705,-0.0293 -0.5638,-0.202 -0.8017,-0.3258 -0.0456,-0.0326 -0.1923,-0.1662 -0.2509,-0.1662 -0.0359,-0.0196 -0.0489,-0.0489 -0.075,-0.0619 0,-0.0131 0,-0.0229 0,-0.0326 -0.0717,-0.0163 -0.0945,-0.0848 -0.1597,-0.1173 -0.0228,-0.0229 -0.0456,-0.0457 -0.0651,-0.0652 -0.0033,-0.0131 -0.0065,-0.0261 -0.0065,-0.0359 -0.1467,-0.0977 -0.2868,-0.3845 -0.3683,-0.5409 -0.0489,-0.1304 -0.0815,-0.1858 -0.0912,-0.2379 -0.1532,-0.3096 -0.1532,-0.6518 -0.2347,-0.9776 0,-0.0131 0,-0.0228 0,-0.0326 0,-0.4432 0.0261,-0.8831 0.0554,-1.3263 0.0033,-0.0098 0.0066,-0.0163 0.0098,-0.0228 0.0359,-0.0717 0.0391,-0.1532 0.0456,-0.2347 0.0066,-0.0293 0.0163,-0.0586 0.0261,-0.0847 0.0424,-0.1043 0.0424,-0.1043 0.0554,-0.176 0.0554,-0.0717 0.1141,-0.2509 0.1336,-0.3356 0.0359,-0.0098 0.0456,-0.0587 0.0554,-0.0913 0.0065,-0.0032 0.0163,-0.0065 0.0261,-0.0065 0.0032,-0.0195 0.0065,-0.0391 0.013,-0.0587 0,-0.0065 0,-0.0097 0,-0.013 0.0424,-0.0326 0.075,-0.0815 0.0815,-0.1303 0.0065,-0.0326 0.0065,-0.0326 0.0195,-0.0359 0.0131,-0.0032 0.0294,-0.0065 0.0457,-0.0065 0.013,-0.0684 0.0651,-0.1075 0.1205,-0.1499 0.0163,-0.0717 0.0848,-0.0815 0.0945,-0.1434 0.0489,-0.0228 0.075,-0.0586 0.1206,-0.0978 0.0228,-0.0391 0.0228,-0.0391 0.0489,-0.0488 0.0456,0 0.0912,-0.0554 0.1141,-0.0913 0.0032,0 0.0065,0 0.0097,0 0.0098,0 0.0196,0 0.0326,0 0,-0.0098 0,-0.0163 0,-0.0228 0.0424,-0.0163 0.0685,-0.0456 0.0978,-0.0815 0.0358,-0.026 0.0358,-0.026 0.0619,-0.026 0.0196,-0.0065 0.0391,-0.0098 0.0587,-0.0131 0,-0.0065 0,-0.013 0,-0.0195 0.0162,-0.0065 0.0358,-0.0098 0.0554,-0.013 0.0032,-0.0131 0.0065,-0.0229 0.0097,-0.0326 0.0294,-0.0163 0.0587,-0.0326 0.088,-0.0489 0.0554,-0.0196 0.1141,-0.0391 0.1727,-0.0587 0.0424,-0.0065 0.0424,-0.0065 0.0978,-0.0423 0.0815,-0.0359 0.0815,-0.0359 0.2281,-0.0783 0.1075,-0.0162 0.2281,-0.0488 0.2509,-0.0651 0.0196,-0.0033 0.0424,-0.0033 0.0652,-0.0033 0.0359,-0.0098 0.0717,-0.0195 0.1075,-0.0293 0.0229,-0.0033 0.0489,-0.0033 0.075,-0.0033 0.0619,-0.0065 0.1238,-0.013 0.1857,-0.0163 0.0098,-0.0097 0.0196,-0.0163 0.0326,-0.0228 0.0782,-0.1173 0.1043,-0.3487 0.1304,-0.4986 0.0391,-0.101 0.189,-0.5474 0.2965,-0.5833 0.0098,-0.0456 0.0391,-0.0684 0.0717,-0.101 0.0065,0 0.0131,0 0.0228,0 0.0066,-0.0228 0.0131,-0.0456 0.0228,-0.0652 -0.0065,-0.0065 -0.0097,-0.013 -0.013,-0.0163 0.0098,-0.013 0.0196,-0.026 0.0326,-0.0391 0.0521,-0.0195 0.1695,-0.1401 0.1955,-0.1857 0.0261,-0.0228 0.0522,-0.0457 0.0815,-0.0652 0.013,-0.0033 0.0261,-0.0065 0.0391,-0.0098 0.0033,-0.0098 0.0065,-0.0163 0.0098,-0.0228 0.013,-0.0032 0.0293,-0.0065 0.0456,-0.0098 0,-0.013 0,-0.0228 0,-0.0326 0.0326,-0.0195 0.0652,-0.0391 0.0978,-0.0554 0.013,-0.0032 0.026,-0.0065 0.0423,-0.0097 0,-0.0098 0,-0.0163 0,-0.0228 0.0359,-0.0196 0.0717,-0.0391 0.1076,-0.0554 0,-0.0066 0,-0.0131 0,-0.0196 0.0097,-0.0098 0.0195,-0.0163 0.0325,-0.0228 0.1532,-0.0391 0.3357,-0.1727 0.4791,-0.2509 0.0098,-0.0065 0.0195,-0.0131 0.0326,-0.0163 0.0814,-0.0065 0.1727,-0.0261 0.2281,-0.0913 0.0652,-0.013 0.1043,-0.0358 0.4236,-0.1303 0.1304,-0.0163 0.2216,-0.0391 0.2607,-0.0326 0,-0.0098 0,-0.0163 0,-0.0228 0.0456,-0.0065 0.0945,-0.013 0.1434,-0.0163 0.0228,0.0033 0.0489,0.0065 0.075,0.0098 0.3845,-0.0424 0.756,-0.0261 1.1405,-0.0033 0.0652,0.0033 0.1304,0.0098 0.1955,0.0163 0.2086,0.0619 0.4465,0.075 0.6616,0.0912 0.0195,0.0033 0.0423,0.0066 0.0652,0.0131 0.0097,0.0098 0.3161,0.0586 0.391,0.0586 0.2281,0.0196 0.2281,0.0196 0.3389,0.0391 0.0424,0.0131 0.2607,0.0359 0.4888,0.0457 0.2412,0 0.4823,0.013 0.717,-0.0359 0.0619,-0.013 0.1238,-0.0228 0.1857,-0.0326 0.0684,-0.0065 0.1336,-0.0228 0.1988,-0.0488 0.0847,-0.0196 0.2672,-0.0652 0.3226,-0.1206 0.0163,-0.0098 0.0326,-0.0196 0.0489,-0.0261 0.0847,0 0.4138,-0.189 0.4497,-0.2607 0.0391,-0.013 0.1075,-0.0456 0.1206,-0.088 0.013,-0.0032 0.026,-0.0065 0.0423,-0.0098 0,-0.013 0,-0.0228 0,-0.0325 0.0619,-0.0391 0.1402,-0.1076 0.1858,-0.163 0.026,-0.0195 0.0456,-0.0358 0.0521,-0.0652 0.0098,-0.0032 0.0196,-0.0065 0.0326,-0.0097 0.0293,-0.0261 0.088,-0.0913 0.0978,-0.1304 0.013,-0.0163 0.0293,-0.0326 0.0456,-0.0456 0.0098,-0.0033 0.0195,-0.0065 0.0326,-0.0098 0.0065,-0.0195 0.013,-0.0391 0.0195,-0.0554 0.0065,0 0.0131,0 0.0228,0 0.0066,-0.0228 0.0131,-0.0456 0.0229,-0.0652 0.0032,-0.0065 0.0065,-0.013 0.0097,-0.0195 0.0065,-0.0163 0.0131,-0.0326 0.0228,-0.0456 0.0522,-0.0424 0.1304,-0.1727 0.1467,-0.2379 0.0261,-0.0685 0.0945,-0.3031 0.1955,-0.1695 0,0.0652 0.0326,0.1206 0.0587,0.1793 0.0065,0 0.0163,0 0.026,0 0.0326,0.0586 0.0685,0.1173 0.1043,0.1759 0.0489,0.0848 0.0489,0.0848 0.075,0.1011 0.0228,0.0782 0.0521,0.1108 0.1108,0.1694 0.0619,0.0521 0.1042,0.1369 0.1727,0.1858 0.0195,0.0163 0.0391,0.0325 0.0586,0.0521 0.0294,0.0293 0.062,0.0587 0.0945,0.088 0.0066,0.0065 0.0163,0.013 0.0261,0.0228 0,0.0391 0.0619,0.0652 0.0913,0.0847 0.0065,0.0131 0.013,0.0294 0.0228,0.0456 0.0097,0 0.0195,0 0.0326,0 0,0.0098 0,0.0196 0,0.0326 0.0325,0.0131 0.0651,0.0261 0.0977,0.0424 0.0652,0.0652 0.1662,0.1075 0.2509,0.1532 0.0457,0.0228 0.0913,0.0488 0.1402,0.0749 0.0391,0.0098 0.0586,0.0326 0.088,0.0424 0.1694,0.0554 0.3356,0.1173 0.5116,0.1531 0.013,0 0.026,0 0.0423,0 0.0326,0.0163 0.0326,0.0163 0.1956,0.0326 0.013,0 0.026,0 0.0423,0 0.0457,0.0619 0.5833,0.0261 0.6746,0.0261 0.1955,-0.0163 0.1955,-0.0163 0.1955,-0.0261 0.189,-0.013 0.4008,-0.026 0.5866,-0.0717 0.0652,-0.0065 0.1303,-0.013 0.1955,-0.0163 0.1564,-0.0228 0.1564,-0.0228 0.163,-0.0326 0.0423,-0.0032 0.0847,-0.0065 0.1303,-0.0097 0.0945,-0.0033 0.2021,-0.0131 0.2933,-0.0424 0.1141,-0.0163 0.2314,-0.0326 0.3487,-0.0456 0.2933,-0.0163 0.2933,-0.0163 0.5637,-0.0522 0.2086,0.0033 0.4172,0.0066 0.629,0.0098 0.0456,0.0163 0.0456,0.0163 0.176,0.0228 0.0163,0 0.0358,0 0.0554,0.0033 0.0717,0.0098 0.1433,0.0195 0.215,0.0293 0,0.0065 0,0.0131 0,0.0196 0.0326,0.0032 0.0652,0.0065 0.0978,0.013 0.0521,0.013 0.1075,0.0261 0.1629,0.0424 0.1402,0.0358 0.2705,0.088 0.4041,0.1401 0.0261,0.0391 0.0652,0.0391 0.1076,0.0456 0.0032,0 0.0065,0 0.0097,0 0.0294,0.0293 0.0652,0.0359 0.1043,0.0489 0.0847,0.0391 0.1695,0.0815 0.2542,0.1238 0,0.0066 0,0.0131 0,0.0228 0.1075,0.0424 0.2183,0.1467 0.3194,0.1695 0,0.0065 0.0032,0.0163 0.0065,0.0261 0.013,0.0032 0.026,0.0065 0.0391,0.0097 0.0032,0 0.0065,0 0.0098,0 0.013,0.0261 0.0358,0.0326 0.0619,0.0424 0.0163,0.0489 0.189,0.1727 0.2379,0.1955 0,0.0457 0.0488,0.0782 0.0879,0.088 0.0066,0.0261 0.0066,0.0261 0.1728,0.2184 0.013,0.0163 0.026,0.0358 0.0391,0.0554 0.0554,0.1336 0.1434,0.2704 0.202,0.404 0.0782,0.2086 0.0782,0.2086 0.1336,0.3944 0,0.0065 0,0.0162 0,0.026 0.0456,0.2086 0.0456,0.2086 0.0554,0.2118 0.0033,0.0131 0.0098,0.0261 0.0163,0.0391 0.013,0.0066 0.0261,0.0163 0.0424,0.0261 0.303,0.0359 0.5866,0.0978 0.8798,0.1792 0,0.0066 0,0.0131 0,0.0229 0.0913,0.0163 0.0913,0.0163 0.1402,0.0358 0.0945,0.0489 0.0945,0.0489 0.1531,0.0652 0.0489,0.0261 0.101,0.0521 0.1532,0.0782 0.0195,0.0391 0.0717,0.0521 0.1075,0.0684 0.0326,0.0196 0.075,0.0391 0.088,0.0782 0.0098,0 0.0196,0 0.0326,0 0.013,0.0196 0.0587,0.0391 0.1336,0.0978 0.0033,0.0065 0.0065,0.0163 0.0098,0.0261 0.1108,0.0847 0.202,0.2281 0.3128,0.2998 0,0.0032 0.0033,0.0065 0.0065,0.0097 0.0066,0.0489 0.088,0.1337 0.1239,0.1695 0.0619,0.101 0.1238,0.2053 0.1857,0.3096 0,0.0521 0.0098,0.0749 0.0424,0.1075 0.0326,0.088 0.0684,0.176 0.1043,0.2672 0,0.0652 0.0065,0.088 0.0358,0.1467 0.0098,0.0652 0.0228,0.1271 0.0554,0.1825 0,0.0032 0,0.0065 0,0.013 0,0.1532 0.0391,0.3031 0.0554,0.4562 0.0065,0 0.0131,0 0.0196,0 0.0032,0.0424 0.0065,0.0848 0.013,0.1304 0,0.4236 -0.013,0.8407 -0.0619,1.2611 -0.0326,0.1173 -0.0326,0.1173 -0.0359,0.1956 0,0.0032 0,0.0065 0,0.0097 -0.0358,0.1043 -0.0749,0.1858 -0.0879,0.2933 0,0.0065 0,0.0131 0,0.0228 -0.0098,0 -0.0196,0.0033 -0.0261,0.0065 -0.0228,0.0783 -0.0554,0.1434 -0.0717,0.2216 0.0032,0.0033 0.0098,0.0098 0.0163,0.0163 0,0 0,0 0,0.0033 -0.0098,0 -0.0196,0 -0.0261,0 -0.0228,0.0554 -0.0586,0.0847 -0.0619,0.1597 -0.0163,0.0195 -0.0293,0.0391 -0.0424,0.0586 -0.0456,0 -0.0586,0.0945 -0.0651,0.1239 -0.0391,0.0554 -0.0783,0.1108 -0.1141,0.1694 -0.0456,0.0391 -0.0912,0.0815 -0.1336,0.1238 -0.0261,0.0392 -0.0554,0.1011 -0.101,0.1141 -0.0065,0.0326 -0.0294,0.0456 -0.0587,0.0554 0,0.0098 0,0.0196 0,0.0326 -0.0489,0 -0.0684,0.0456 -0.0977,0.0782 -0.0392,0.0163 -0.0717,0.0489 -0.1304,0.075 -0.0033,0.0097 -0.0065,0.0195 -0.0065,0.0325 -0.0587,0.0326 -0.1141,0.0652 -0.1695,0.1011 -0.189,0.101 -0.189,0.101 -0.4334,0.2118 -0.0586,0.0032 -0.0782,0.0032 -0.1075,0.0456 -0.0098,0 -0.0163,0 -0.0228,0 -0.0554,0 -0.0815,0.0196 -0.1304,0.0424 -0.0489,0.013 -0.0945,0.026 -0.1401,0.0423 -0.0652,0.0065 -0.1271,0.0131 -0.189,0.0196 -0.0033,0.0065 -0.0065,0.0163 -0.0065,0.0261 -0.0782,0 -0.0782,0 -0.0782,0.0097 -0.0131,0 -0.0229,0 -0.0326,0 -0.1858,-0.0163 -0.2933,-0.0391 -0.3259,0.1402 -0.0293,0.1694 -0.0945,0.3356 -0.1173,0.5018 -0.0359,0.0684 -0.0782,0.1434 -0.088,0.2183 -0.0554,-0.0228 -0.0913,0.1337 -0.0978,0.1728 -0.0586,0.0423 -0.0945,0.1499 -0.1662,0.1922 -0.0032,0.0131 -0.0065,0.0294 -0.0065,0.0456 -0.0358,0.0424 -0.0847,0.0685 -0.0978,0.1206 -0.0162,0.0033 -0.0325,0.0065 -0.0456,0.0098 -0.013,0.0424 -0.0456,0.0815 -0.0847,0.0912 -0.0163,0.0554 -0.1173,0.1108 -0.1662,0.1467 -0.0033,0.0098 -0.0033,0.0195 -0.0033,0.0293 -0.0423,0.0228 -0.0423,0.0228 -0.0586,0.0489 -0.0326,0.0033 -0.0326,0.0033 -0.1467,0.0619 -0.0032,0.0065 -0.0065,0.0163 -0.0065,0.0261 -0.0228,0.0032 -0.0456,0.0098 -0.0684,0.0163 -0.0033,0.0065 -0.0065,0.0163 -0.0065,0.026 -0.0261,0.0066 -0.0522,0.0131 -0.0782,0.0229 0,0.0097 0,0.0195 0,0.0325 -0.0424,0.0066 -0.0652,0.0196 -0.0978,0.0522 -0.1141,0.0554 -0.2249,0.1108 -0.3357,0.1694 -0.0782,0 -0.2085,0.0326 -0.2509,0.0978 -0.0358,0.013 -0.0717,0.0261 -0.1075,0.0424 -0.0684,0 -0.1043,0 -0.1532,0.0554 -0.0065,0 -0.013,0 -0.0195,0 -0.0978,0 -0.2542,0.0391 -0.3389,0.0814 -0.3911,0.0489 -0.7887,0.0326 -1.183,0.0359 -0.2835,-0.0326 -0.2835,-0.0326 -0.5018,-0.0456 -0.0522,-0.0359 -0.1206,-0.0261 -0.1825,-0.0326 -0.1597,-0.0228 -0.3194,-0.0424 -0.479,-0.0619 -0.163,-0.062 -0.4009,-0.062 -0.5768,-0.0815 -0.1369,-0.0228 -0.2607,-0.0424 -0.4009,-0.0359 -0.0228,0 -0.0456,0 -0.0651,0 0,-0.0097 0,-0.0097 -0.5117,-0.0228 -0.202,0.0065 -0.3943,0.0065 -0.5865,0.0717 -0.0391,0.0098 -0.0783,0.0196 -0.1174,0.0326 -0.0814,0.0033 -0.1303,0.013 -0.1987,0.0521 -0.0652,0.0261 -0.0652,0.0261 -0.0685,0.0392 -0.1075,0.0293 -0.2053,0.0879 -0.3096,0.1368 -0.0195,0 -0.0358,0.0033 -0.0521,0.0065 -0.0098,0.0098 -0.0196,0.0228 -0.0261,0.0359 -0.0032,0 -0.0065,0 -0.0097,0 -0.0424,0.0032 -0.0424,0.0032 -0.075,0.0228 0,0.0065 0,0.013 0,0.0195 -0.0228,0.0066 -0.0456,0.0131 -0.0652,0.0229 0,0.0065 0,0.013 0,0.0228 -0.0619,0 -0.1368,0.101 -0.1759,0.1401 -0.0652,0.0489 -0.1499,0.1043 -0.1956,0.1727 -0.0521,0.0196 -0.1042,0.0521 -0.1173,0.1108 -0.0489,0.0456 -0.0489,0.0456 -0.0554,0.0652 -0.0391,0.0326 -0.0782,0.0586 -0.088,0.1075 -0.0456,0.0554 -0.088,0.1141 -0.1303,0.1727 -0.0619,0.0131 -0.0913,0.0848 -0.1076,0.1434 -0.0097,0 -0.0195,0.0033 -0.026,0.0065 -0.0228,0.0782 -0.0424,0.1043 -0.0457,0.1402 -0.0032,0.0065 -0.0032,0.0163 -0.0032,0.026 -0.0391,0.0391 -0.0424,0.0522 -0.0554,0.1076 -0.0196,0.0195 -0.0391,0.0326 -0.0717,0.0391z"/>
   <path id="_160997224" class="fil2" d="M6.1628 6.4647c0.1132,0.0076 0.2716,0.0811 0.4752,0.2207 0.2037,0.1395 0.4263,0.3055 0.6676,0.4978 0.2414,0.1924 0.4187,0.3225 0.5318,0.3904 0.1811,-0.1811 0.2716,-0.3885 0.2716,-0.6223 0,-0.2263 -0.1245,-0.5375 -0.3734,-0.9335 -0.2489,-0.3961 -0.3734,-0.711 -0.3734,-0.9449 0,-0.264 0.0943,-0.4771 0.2829,-0.6393 0.1886,-0.1621 0.4149,-0.2395 0.6789,-0.2319 0.2187,0.0075 0.4111,0.0886 0.5771,0.2433 0.1659,0.1546 0.2489,0.3338 0.2489,0.5374 0,0.1132 -0.0302,0.1697 -0.0905,0.1697 -0.0528,0 -0.1056,-0.0377 -0.1584,-0.1131 -0.0528,-0.0754 -0.0792,-0.1622 -0.0792,-0.2602 0,-0.0076 0.0018,-0.0265 0.0056,-0.0566 0.0038,-0.0302 0.0057,-0.0491 0.0057,-0.0566 0,-0.0905 -0.0547,-0.1659 -0.1641,-0.2263 -0.1094,-0.0603 -0.2206,-0.0905 -0.3338,-0.0905 -0.2188,0 -0.3904,0.0452 -0.5148,0.1358 -0.1245,0.0905 -0.1867,0.2715 -0.1867,0.5431 0,0.1358 0.1376,0.4111 0.413,0.826 0.2753,0.4149 0.413,0.7656 0.413,1.0523 0,0.3319 -0.1207,0.611 -0.3621,0.8373 0.8449,0.5281 1.6294,0.7921 2.3535,0.7921 0.3772,0 0.7506,-0.0679 1.1202,-0.2037 0.1207,-0.0528 0.215,-0.1414 0.2829,-0.2659 0.0679,-0.1245 0.1509,-0.1867 0.2489,-0.1867 0.0679,0 0.1019,0.0264 0.1019,0.0792 0,0.083 -0.0679,0.1773 -0.2037,0.2829 -0.1358,0.1056 -0.3451,0.2036 -0.628,0.2942 -0.2829,0.0905 -0.5903,0.1358 -0.9222,0.1358 -0.7543,0 -1.5765,-0.2792 -2.4667,-0.8374 -0.2791,0.1962 -0.6562,0.2942 -1.1315,0.2942 -0.2564,0 -0.4922,-0.083 -0.7072,-0.2489 -0.215,-0.166 -0.3375,-0.396 -0.3677,-0.6902 -0.0226,-0.249 0,-0.4338 0.0679,-0.5545 0.0679,-0.1207 0.1735,-0.1772 0.3168,-0.1697zm-0.2489 0.6337c0,0.2489 0.0886,0.4582 0.2659,0.6279 0.1772,0.1698 0.3979,0.2546 0.6619,0.2546 0.3395,0 0.6374,-0.1056 0.8939,-0.3168 -0.1358,-0.083 -0.3244,-0.2244 -0.5657,-0.4243 -0.2414,-0.1999 -0.4527,-0.3621 -0.6337,-0.4866 -0.181,-0.1244 -0.3168,-0.1867 -0.4073,-0.1867 -0.083,0 -0.1415,0.0378 -0.1754,0.1132 -0.034,0.0754 -0.0472,0.215 -0.0396,0.4187zm5.1733 -0.7604c-0.0863,0.1726 -0.2178,0.3157 -0.3943,0.4295 -0.1765,0.1138 -0.3707,0.1706 -0.5825,0.1706 -0.0392,0 -0.0863,0.0432 -0.1412,0.1295 -0.0392,0.0627 -0.102,0.1451 -0.1883,0.2471 -0.0863,0.102 -0.2314,0.2255 -0.4354,0.3707 -0.2039,0.1451 -0.3961,0.2177 -0.5766,0.2177 -0.1726,0 -0.2628,-0.0981 -0.2706,-0.2942 -0.0157,-0.4236 0.1667,-0.8591 0.5471,-1.3062 0.3805,-0.4472 0.7316,-0.6708 1.0533,-0.6708 0.2118,0 0.3177,0.1334 0.3177,0.4001 0,0.2275 -0.0824,0.4746 -0.2471,0.7414 0.3608,-0.0236 0.6158,-0.1922 0.7649,-0.506 0.0157,-0.0393 0.0392,-0.0589 0.0706,-0.0589 0.0549,0 0.0824,0.0432 0.0824,0.1295zm-2.2124 1.365c0.2746,-0.0078 0.6119,-0.2745 1.012,-0.8002 -0.3451,-0.0863 -0.5177,-0.2863 -0.5177,-0.6001 0,-0.0549 0.0039,-0.0942 0.0117,-0.1177 -0.4001,0.4315 -0.6001,0.8787 -0.6001,1.3415 0,0.0549 0.0078,0.0961 0.0235,0.1236 0.0157,0.0274 0.0275,0.0431 0.0353,0.047 0.0079,0.004 0.0196,0.0059 0.0353,0.0059zm1.0944 -0.9414c0.1255,-0.251 0.1883,-0.4511 0.1883,-0.6001 0,-0.1883 -0.0745,-0.2825 -0.2236,-0.2825 -0.1412,0 -0.2451,0.051 -0.3118,0.153 -0.0667,0.102 -0.1001,0.1922 -0.1001,0.2707 0,0.2196 0.1491,0.3726 0.4472,0.4589zm2.6478 0.4472c0.0156,-0.0079 0.0353,-0.0118 0.0588,-0.0118 0.0157,0 0.0235,0.0079 0.0235,0.0236l-0.0823 0.1412c-0.4472,0.353 -0.7375,0.5295 -0.8709,0.5295 -0.0706,0 -0.1333,-0.0294 -0.1882,-0.0882 -0.055,-0.0589 -0.0824,-0.1432 -0.0824,-0.253 0,-0.2903 0.2314,-0.7846 0.6943,-1.4828 0.0863,-0.1177 0.1216,-0.1883 0.1059,-0.2118 -0.0235,0 -0.0588,0.0079 -0.1059,0.0235 -0.6198,0.2354 -1.1729,0.7492 -1.6593,1.5416 -0.0392,0.0628 -0.0804,0.1373 -0.1235,0.2236 -0.0432,0.0863 -0.0746,0.1451 -0.0942,0.1765 -0.0196,0.0314 -0.0451,0.0471 -0.0765,0.0471 -0.0392,0 -0.0588,-0.051 -0.0588,-0.153 0,-0.102 0.0196,-0.2001 0.0588,-0.2942 0.4551,-1.1454 0.8591,-1.7181 1.2121,-1.7181 0.0392,0 0.0589,0.0236 0.0589,0.0706 0,0.0471 -0.0275,0.1138 -0.0824,0.2001 -0.0549,0.0863 -0.1353,0.1961 -0.2413,0.3295 -0.1059,0.1333 -0.1706,0.2196 -0.1941,0.2589 0.3609,-0.3844 0.7492,-0.663 1.165,-0.8355 0.3138,-0.0707 0.4707,0.0039 0.4707,0.2235 0,0.0628 -0.0079,0.102 -0.0235,0.1177 -0.6041,0.8316 -0.9062,1.3298 -0.9062,1.4945 0,0.1177 0.0314,0.1765 0.0942,0.1765 0.0314,0 0.1177,-0.0431 0.2589,-0.1294 0.1412,-0.0863 0.2745,-0.1726 0.4001,-0.2589 0.1255,-0.0863 0.1883,-0.1334 0.1883,-0.1412zm1.7063 -1.3298c-0.4943,0.1962 -0.961,0.5884 -1.4004,1.1768 -0.1098,0.1804 -0.1941,0.3334 -0.253,0.4589 -0.0588,0.1256 -0.0922,0.204 -0.1,0.2354l-0.0118 0.0588c-0.0157,0.0471 -0.047,0.0706 -0.0941,0.0706 -0.0549,0 -0.0824,-0.0274 -0.0824,-0.0823 0,-0.3295 0.1903,-0.7924 0.5707,-1.3886 0.3805,-0.5962 0.7532,-1.1121 1.118,-1.5475 0.3648,-0.4354 0.5589,-0.6531 0.5825,-0.6531 0.0784,0 0.1177,0.0589 0.1177,0.1765 0,0.0628 -0.0197,0.1216 -0.0589,0.1766 -0.4393,0.5648 -0.8551,1.1257 -1.2474,1.6827 0.3923,-0.3373 0.7336,-0.5217 1.0238,-0.553 0.1177,-0.0157 0.2099,0.0235 0.2766,0.1176 0.0667,0.0942 0.0608,0.1805 -0.0177,0.2589 -0.6119,0.8395 -0.9179,1.3376 -0.9179,1.4945 0,0.1177 0.0314,0.1765 0.0942,0.1765 0.0471,0 0.1412,-0.0431 0.2824,-0.1294 0.1412,-0.0863 0.2726,-0.1726 0.3942,-0.2589 0.1216,-0.0863 0.1824,-0.1334 0.1824,-0.1412 0.0157,-0.0079 0.0314,-0.0118 0.0471,-0.0118 0.0235,0 0.0353,0.0079 0.0353,0.0236l-0.0824 0.1412c-0.4158,0.353 -0.71,0.5295 -0.8826,0.5295 -0.0706,0 -0.1274,-0.0216 -0.1706,-0.0647 -0.0431,-0.0431 -0.0686,-0.0843 -0.0765,-0.1236l-0.0117 -0.0706c-0.0157,-0.1883 0.0313,-0.3981 0.1412,-0.6295 0.1098,-0.2315 0.2942,-0.5433 0.553,-0.9356 0.0864,-0.1333 0.0981,-0.2 0.0354,-0.2 -0.0157,0 -0.0314,0.0039 -0.0471,0.0117zm2.8242 0.459c-0.0863,0.1726 -0.2177,0.3157 -0.3942,0.4295 -0.1765,0.1138 -0.3707,0.1706 -0.5825,0.1706 -0.0392,0 -0.0863,0.0432 -0.1412,0.1295 -0.0392,0.0627 -0.102,0.1451 -0.1883,0.2471 -0.0863,0.102 -0.2314,0.2255 -0.4354,0.3707 -0.204,0.1451 -0.3962,0.2177 -0.5766,0.2177 -0.1726,0 -0.2628,-0.0981 -0.2707,-0.2942 -0.0156,-0.4236 0.1668,-0.8591 0.5472,-1.3062 0.3805,-0.4472 0.7316,-0.6708 1.0532,-0.6708 0.2119,0 0.3178,0.1334 0.3178,0.4001 0,0.2275 -0.0824,0.4746 -0.2471,0.7414 0.3608,-0.0236 0.6158,-0.1922 0.7649,-0.506 0.0157,-0.0393 0.0392,-0.0589 0.0706,-0.0589 0.0549,0 0.0823,0.0432 0.0823,0.1295zm-2.2123 1.365c0.2746,-0.0078 0.6119,-0.2745 1.012,-0.8002 -0.3452,-0.0863 -0.5178,-0.2863 -0.5178,-0.6001 0,-0.0549 0.004,-0.0942 0.0118,-0.1177 -0.4001,0.4315 -0.6001,0.8787 -0.6001,1.3415 0,0.0549 0.0078,0.0961 0.0235,0.1236 0.0157,0.0274 0.0275,0.0431 0.0353,0.047 0.0079,0.004 0.0196,0.0059 0.0353,0.0059zm1.0944 -0.9414c0.1255,-0.251 0.1883,-0.4511 0.1883,-0.6001 0,-0.1883 -0.0745,-0.2825 -0.2236,-0.2825 -0.1412,0 -0.2452,0.051 -0.3119,0.153 -0.0666,0.102 -0.1,0.1922 -0.1,0.2707 0,0.2196 0.1491,0.3726 0.4472,0.4589z"/>
   <path id="_160997152" class="fil2" d="M9.7589 12.0989c-0.2716,-0.0453 -0.5639,-0.1641 -0.8769,-0.3564 -0.3131,-0.1924 -0.4696,-0.4093 -0.4696,-0.6507 0,-0.0377 0.0226,-0.0641 0.0679,-0.0792 0.0905,-0.0226 0.1641,0.0094 0.2206,0.0962 0.0566,0.0867 0.0962,0.1829 0.1189,0.2885 0.0226,0.1056 0.0377,0.1584 0.0452,0.1584 0.2188,0.1811 0.5375,0.3206 0.9561,0.4187 0.4187,0.0981 0.8317,0.1471 1.2391,0.1471 0.528,0 1.0504,-0.0905 1.5671,-0.2716 0.5167,-0.181 0.9655,-0.4714 1.3465,-0.8712 0.3809,-0.3998 0.5714,-0.8675 0.5714,-1.4031 0,-0.3847 -0.1056,-0.7053 -0.3168,-0.9618 -0.2112,-0.2565 -0.5054,-0.3998 -0.8826,-0.43 -0.4224,0 -0.7393,0.0943 -0.9505,0.2829 -0.083,0.0679 -0.1584,0.3206 -0.2263,0.7581l0.5771 -0.8712c0.0302,-0.0528 0.0641,-0.0792 0.1018,-0.0792 0.0378,0 0.0679,0.0226 0.0906,0.0678 0.0226,0.0453 0.0339,0.0868 0.0339,0.1245l-0.0453 0.1697 -0.7128 1.0524c-0.7091,1.0108 -1.0636,1.7048 -1.0636,2.0819 0,0.0755 -0.0302,0.1132 -0.0905,0.1132 -0.0679,0 -0.1019,-0.0302 -0.1019,-0.0905 0,-0.4677 0.3583,-1.2522 1.0749,-2.3536 0,-0.5582 0.0981,-0.9203 0.2942,-1.0862 0.2641,-0.2339 0.6186,-0.3357 1.0637,-0.3055 0.4224,0.0226 0.775,0.1697 1.0579,0.4413 0.2829,0.2715 0.4243,0.6336 0.4243,1.0862 0,0.5658 -0.2093,1.0636 -0.6279,1.4936 -0.4187,0.43 -0.9053,0.7411 -1.4597,0.9335 -0.5544,0.1923 -1.1108,0.2885 -1.669,0.2885 -0.4601,0 -0.9127,-0.0641 -1.3578,-0.1923zm7.1987 -1.7788c-0.0863,0.1726 -0.2177,0.3158 -0.3942,0.4296 -0.1766,0.1137 -0.3707,0.1706 -0.5825,0.1706 -0.0393,0 -0.0863,0.0431 -0.1413,0.1294 -0.0392,0.0628 -0.1019,0.1452 -0.1882,0.2472 -0.0863,0.1019 -0.2315,0.2255 -0.4354,0.3706 -0.204,0.1452 -0.3962,0.2177 -0.5767,0.2177 -0.1726,0 -0.2628,-0.098 -0.2706,-0.2942 -0.0157,-0.4236 0.1667,-0.859 0.5472,-1.3062 0.3805,-0.4471 0.7315,-0.6707 1.0532,-0.6707 0.2118,0 0.3177,0.1333 0.3177,0.4001 0,0.2275 -0.0824,0.4746 -0.2471,0.7413 0.3609,-0.0235 0.6158,-0.1922 0.7649,-0.506 0.0157,-0.0392 0.0392,-0.0588 0.0706,-0.0588 0.0549,0 0.0824,0.0431 0.0824,0.1294zm-2.2123 1.3651c0.2745,-0.0079 0.6119,-0.2746 1.012,-0.8002 -0.3452,-0.0863 -0.5178,-0.2864 -0.5178,-0.6002 0,-0.0549 0.0039,-0.0941 0.0118,-0.1176 -0.4001,0.4314 -0.6002,0.8786 -0.6002,1.3415 0,0.0549 0.0078,0.0961 0.0235,0.1235 0.0157,0.0275 0.0275,0.0432 0.0353,0.0471 0.0079,0.0039 0.0197,0.0059 0.0354,0.0059zm1.0943 -0.9414c0.1256,-0.2511 0.1883,-0.4511 0.1883,-0.6002 0,-0.1883 -0.0745,-0.2824 -0.2236,-0.2824 -0.1412,0 -0.2451,0.051 -0.3118,0.153 -0.0667,0.102 -0.1,0.1922 -0.1,0.2706 0,0.2197 0.149,0.3727 0.4471,0.459zm1.5887 -1.0121c0.0549,-0.0235 0.102,-0.0353 0.1412,-0.0353 0.2354,0 0.3217,0.1805 0.2589,0.5414 -0.0235,0.1255 -0.0647,0.2236 -0.1236,0.2942 -0.0588,0.0706 -0.1078,0.1098 -0.1471,0.1176l-0.0706 0.0118 0.0118 -0.0118 -0.0118 0.0118c-0.0235,-0.0078 -0.0353,-0.0549 -0.0353,-0.1412 0,-0.0236 0.0373,-0.0942 0.1118,-0.2118 0.0746,-0.1177 0.1118,-0.2158 0.1118,-0.2942 -0.0784,0 -0.1647,0.0314 -0.2589,0.0941 -0.1726,0.1099 -0.3942,0.3334 -0.6649,0.6708 -0.2706,0.3373 -0.4059,0.5962 -0.4059,0.7766 0,0.102 0.0666,0.153 0.2,0.153 0.2903,0 0.6041,-0.1412 0.9414,-0.4236 0.3374,-0.2824 0.5649,-0.5217 0.6826,-0.7178 0.0078,-0.0079 0.0137,-0.0079 0.0176,0 0.0039,0.0078 0.0059,0.0157 0.0059,0.0235 0,0.1883 -0.2059,0.4472 -0.6178,0.7767 -0.4119,0.3295 -0.7512,0.4981 -1.0179,0.506 -0.1569,0.0078 -0.2668,-0.0275 -0.3295,-0.1059 -0.0628,-0.0785 -0.0942,-0.1844 -0.0942,-0.3178 0,-0.251 0.1569,-0.5805 0.4707,-0.9884 0.3139,-0.408 0.5884,-0.6512 0.8238,-0.7297zm1.9299 1.271c0.0392,-0.0549 0.0863,-0.1059 0.1412,-0.153 0.0549,-0.0471 0.0942,-0.0667 0.1177,-0.0589 0.0392,0.0314 -0.0079,0.1334 -0.1412,0.306 -0.1726,0.204 -0.3884,0.3805 -0.6473,0.5296 -0.6276,0.3373 -0.9884,0.3373 -1.0826,0 -0.0706,-0.2511 0.0334,-0.5982 0.3119,-1.0415 0.2785,-0.4432 0.5511,-0.7276 0.8178,-0.8532 0.0863,-0.0549 0.1805,-0.0725 0.2825,-0.0529 0.1019,0.0196 0.1725,0.0804 0.2118,0.1824 0.0314,0.0784 0.047,0.1549 0.047,0.2295 0,0.0745 -0.0058,0.1412 -0.0176,0.2 -0.0118,0.0589 -0.0392,0.1197 -0.0824,0.1824 -0.0431,0.0628 -0.0804,0.1157 -0.1118,0.1589 -0.0314,0.0431 -0.0843,0.0922 -0.1588,0.1471 -0.0746,0.0549 -0.1334,0.098 -0.1766,0.1294 -0.0431,0.0314 -0.1098,0.0706 -0.2,0.1177 -0.0902,0.0471 -0.153,0.0804 -0.1883,0.1 -0.0353,0.0196 -0.1,0.051 -0.1942,0.0942 -0.0941,0.0431 -0.149,0.0686 -0.1647,0.0765 -0.0157,0.0078 -0.0373,0.0157 -0.0647,0.0235 -0.0275,0.0078 -0.0491,0.0118 -0.0647,0.0118 -0.0471,0.1333 -0.0589,0.2471 -0.0354,0.3412 0.0628,0.0628 0.1785,0.0687 0.3472,0.0177 0.1687,-0.051 0.3197,-0.1197 0.453,-0.206 0.2119,-0.1333 0.4119,-0.2941 0.6002,-0.4824zm-0.4119 -0.9415c-0.3452,0.2354 -0.6354,0.5963 -0.8708,1.0827 0.8708,-0.3609 1.2552,-0.7532 1.1533,-1.1768 -0.0314,-0.0628 -0.1256,-0.0314 -0.2825,0.0941z"/>
   <path id="_160997080" class="fil0" d="M18.1628 6.8877c0.7307,0 1.3233,0.5926 1.3233,1.3233 0,0.2817 -0.0881,0.5428 -0.2383,0.7574 -0.7831,0.3667 -1.539,0.3849 -2.2237,-0.0832 -0.1173,-0.1975 -0.1846,-0.428 -0.1846,-0.6742 0,-0.7307 0.5926,-1.3233 1.3233,-1.3233z"/>
   <path id="_160997008" class="fil3" d="M18.1708 6.9413c0.6344,0 1.1488,0.5251 1.1488,1.1726 0,0.4728 -0.2744,0.8803 -0.6693,1.0658 -0.316,0.0736 -0.6253,0.0818 -0.9251,0.0153 -0.413,-0.1777 -0.7031,-0.5949 -0.7031,-1.0811 0,-0.6475 0.5144,-1.1726 1.1487,-1.1726z"/>
   <path id="_160996936" class="fil4" d="M17.936 6.9934c-0.8741,0.5249 1.0303,0.8643 0.542,0.1929 -0.1612,-0.1368 -0.3369,-0.1832 -0.542,-0.1929z"/>
   <path id="_160996864" class="fil5" d="M17.9951 6.8834c-0.5665,0.2051 0.3491,0.8472 0.5884,0.3662 0,-0.2881 -0.3687,-0.3515 -0.5884,-0.3662z"/>
   <path id="_160996792" class="fil6" d="M17.2966 6.0734c-0.0067,-0.0076 -0.0073,-0.0184 -0.0016,-0.0325 0.0039,-0.0098 0.0105,-0.0202 0.0198,-0.0312 0.0879,-0.0888 0.2352,-0.0918 0.442,-0.0089 0.0506,0.0203 0.0985,0.0444 0.1437,0.0723 0.0451,0.0279 0.0921,0.0603 0.1411,0.097 0.0489,0.0368 0.0863,0.0637 0.1122,0.0806 0.1224,-0.0244 0.2315,-0.0174 0.3271,0.0209 0.045,0.0181 0.0787,0.043 0.101,0.0749 0.0224,0.0318 0.0279,0.0618 0.0166,0.0899 -0.0197,0.0492 -0.0788,0.0541 -0.1773,0.0146 -0.0576,-0.0231 -0.1419,-0.0757 -0.2527,-0.1577 -0.1038,0.0269 -0.2008,0.0713 -0.2909,0.1331 -0.0902,0.0619 -0.1507,0.1315 -0.1817,0.2088 -0.0164,0.0408 -0.0186,0.0787 -0.0065,0.1138 0.0121,0.035 0.0399,0.0613 0.0835,0.0788 0.045,0.018 0.1006,0.026 0.1667,0.024 0.0662,-0.0021 0.1244,-0.0069 0.1748,-0.0144 0.0504,-0.0076 0.0791,-0.0099 0.0861,-0.0071 -0.009,0.0225 -0.067,0.0388 -0.1739,0.049 -0.107,0.0102 -0.1942,0.0017 -0.2617,-0.0254 -0.1266,-0.0507 -0.164,-0.1408 -0.1121,-0.2702 0.0333,-0.083 0.0966,-0.1531 0.1898,-0.2105 0.0932,-0.0573 0.1852,-0.0955 0.2761,-0.1145 -0.0244,-0.0164 -0.0597,-0.0415 -0.1056,-0.0755 -0.046,-0.0339 -0.0903,-0.0639 -0.1329,-0.09 -0.0426,-0.0261 -0.0871,-0.0484 -0.1336,-0.067 -0.1659,-0.0666 -0.2862,-0.0781 -0.3608,-0.0346 -0.0065,0.004 -0.0148,0.0145 -0.025,0.0317 -0.0101,0.0171 -0.0196,0.0317 -0.0285,0.0436 -0.0089,0.012 -0.0183,0.016 -0.0281,0.012 -0.0042,-0.0017 -0.0068,-0.0035 -0.0076,-0.0055zm1.1594 0.2176c-0.0779,-0.0214 -0.1621,-0.0233 -0.2524,-0.0057 0.0961,0.0696 0.1752,0.1168 0.2371,0.1417 0.0745,0.0299 0.1177,0.03 0.1296,0.0005 0.0096,-0.0239 0.0028,-0.0487 -0.0204,-0.0743 -0.0232,-0.0256 -0.0545,-0.0464 -0.0939,-0.0622z"/>
   <path id="_160996720" class="fil7 str1" d="M18.1994 6.6762c0.1118,0 0.2025,0.0907 0.2025,0.2025 0,0.1118 -0.0907,0.2025 -0.2025,0.2025 -0.1118,0 -0.2025,-0.0907 -0.2025,-0.2025 0,-0.1118 0.0907,-0.2025 0.2025,-0.2025z"/>
  </g>
 </g>
</svg>
