<?xml version="1.0" encoding="UTF-8"?>
<!DOCTYPE svg PUBLIC "-//W3C//DTD SVG 1.1//EN" "http://www.w3.org/Graphics/SVG/1.1/DTD/svg11.dtd">
<!-- Creator: CorelDRAW -->
<svg xmlns="http://www.w3.org/2000/svg" xml:space="preserve" width="16.9332mm" height="21.1666mm" style="shape-rendering:geometricPrecision; text-rendering:geometricPrecision; image-rendering:optimizeQuality; fill-rule:evenodd; clip-rule:evenodd"
viewBox="0 0 16.9332 21.1666">
 <defs>
  <style type="text/css">
   <![CDATA[
    .str0 {stroke:#381B17;stroke-width:0.0762}
    .str1 {stroke:#381B17;stroke-width:0.1764}
    .fil0 {fill:#381B17}
    .fil1 {fill:#59251F}
    .fil2 {fill:#784330}
    .fil3 {fill:#8F5D40}
    .fil5 {fill:#E9B8A4}
    .fil4 {fill:#7B3129;fill-rule:nonzero}
   ]]>
  </style>
 </defs>
 <g id="Layer_x0020_1">
  <metadata id="CorelCorpID_0Corel-Layer"/>
  <g id="_161539784">
   <path id="_161539448" class="fil0" d="M8.4668 6.1192c4.6412,0 8.4049,3.7637 8.4049,8.4049 0,1.7894 -0.56,3.4479 -1.5134,4.8106 -4.974,2.3291 -9.7749,2.4449 -14.1244,-0.5284 -0.7444,-1.2542 -1.1723,-2.718 -1.1723,-4.2822 0,-4.6412 3.7637,-8.4049 8.4052,-8.4049z"/>
   <path id="_161540336" class="fil1" d="M8.5177 6.46c4.0289,0 7.2961,3.3352 7.2961,7.4478 0,3.003 -1.7422,5.5908 -4.2508,6.7688 -2.0069,0.4675 -3.9716,0.5201 -5.8756,0.0972 -2.6235,-1.1287 -4.4655,-3.7781 -4.4655,-6.866 0,-4.1126 3.2672,-7.4478 7.2958,-7.4478z"/>
   <path id="_161539304" class="fil2" d="M7.026 6.7905c-5.5515,3.334 6.5441,5.4897 3.4427,1.2252 -1.0235,-0.8685 -2.1402,-1.1632 -3.4427,-1.2252z"/>
   <path id="_161540456" class="fil3" d="M7.4015 6.0921c-3.5976,1.3025 2.2176,5.3809 3.7371,2.326 0,-1.8297 -2.3416,-2.2331 -3.7371,-2.326z"/>
   <path id="_161539520" class="fil4 str0" d="M2.9651 0.9475c-0.0427,-0.0481 -0.0463,-0.117 -0.0104,-0.2064 0.025,-0.0625 0.0672,-0.1286 0.1262,-0.1984 0.5581,-0.5642 1.4938,-0.5829 2.807,-0.0564 0.3217,0.1291 0.626,0.2821 0.9126,0.4593 0.2868,0.1774 0.5855,0.3826 0.8964,0.6161 0.3106,0.2338 0.5484,0.4041 0.7126,0.5116 0.7777,-0.1549 1.4702,-0.1104 2.0778,0.1331 0.2859,0.1149 0.4996,0.2731 0.6416,0.4753 0.1418,0.2019 0.1769,0.3925 0.1055,0.571 -0.1255,0.3128 -0.5008,0.3437 -1.1264,0.093 -0.366,-0.147 -0.901,-0.4807 -1.6049,-1.0016 -0.6598,0.171 -1.2756,0.4529 -1.8481,0.8457 -0.5723,0.3925 -0.957,0.8348 -1.154,1.3259 -0.104,0.2592 -0.1177,0.5 -0.041,0.7227 0.0767,0.2224 0.2536,0.3894 0.5305,0.5003 0.2859,0.1146 0.6388,0.1656 1.0589,0.1526 0.4201,-0.0132 0.7899,-0.0436 1.11,-0.0915 0.3201,-0.0479 0.5025,-0.063 0.547,-0.0451 -0.0573,0.143 -0.4255,0.2468 -1.1048,0.3114 -0.6794,0.0646 -1.2335,0.0109 -1.6623,-0.1611 -0.8041,-0.3224 -1.0412,-0.8947 -0.7117,-1.7165 0.2116,-0.5272 0.6133,-0.9728 1.2052,-1.337 0.592,-0.364 1.1768,-0.6064 1.7542,-0.7274 -0.1554,-0.1038 -0.3793,-0.2638 -0.6713,-0.4794 -0.292,-0.2156 -0.5734,-0.4061 -0.844,-0.5717 -0.2708,-0.1656 -0.5534,-0.3074 -0.8482,-0.4258 -1.0542,-0.4227 -1.8182,-0.4958 -2.2921,-0.2194 -0.0413,0.025 -0.0941,0.092 -0.1585,0.201 -0.0644,0.109 -0.1248,0.2014 -0.1811,0.2774 -0.0564,0.076 -0.1159,0.1014 -0.1784,0.0764 -0.0269,-0.0108 -0.0429,-0.0224 -0.0483,-0.0351zm7.3637 1.3822c-0.4949,-0.1363 -1.0294,-0.1483 -1.6033,-0.0363 0.611,0.4421 1.1132,0.7419 1.5061,0.8994 0.4735,0.1899 0.7478,0.1911 0.823,0.0036 0.0611,-0.1519 0.018,-0.3093 -0.1295,-0.472 -0.1474,-0.1628 -0.346,-0.2944 -0.5963,-0.3947z"/>
   <path id="_161541584" class="fil5 str1" d="M8.6994 4.7763c0.71,0 1.286,0.576 1.286,1.286 0,0.7103 -0.576,1.2863 -1.286,1.2863 -0.7103,0 -1.2863,-0.576 -1.2863,-1.2863 0,-0.71 0.576,-1.286 1.2863,-1.286z"/>
  </g>
 </g>
</svg>
